<svg xmlns="http://www.w3.org/2000/svg" width="24" height="24" viewBox="0 0 24 24">
  <g id="그룹_314" data-name="그룹 314" transform="translate(-5108 -1022)">
    <rect id="사각형_195" data-name="사각형 195" width="24" height="24" transform="translate(5108 1022)" fill="none"/>
    <path id="support_agent_FILL0_wght400_GRAD0_opsz48" d="M13.125,24.25V22.729h8.618V15.024a6.6,6.6,0,0,0-.634-2.826,8.128,8.128,0,0,0-1.7-2.4,8.458,8.458,0,0,0-2.433-1.66,6.8,6.8,0,0,0-5.678,0A8.458,8.458,0,0,0,8.867,9.8a8.128,8.128,0,0,0-1.7,2.4,6.6,6.6,0,0,0-.634,2.826v6.185H6.028A2.034,2.034,0,0,1,4,19.181V17.153a1.888,1.888,0,0,1,.279-1.027,2.226,2.226,0,0,1,.735-.722L5.09,14.06a9.2,9.2,0,0,1,1.052-3.346A8.906,8.906,0,0,1,8.195,8.18a9.226,9.226,0,0,1,2.763-1.61,9.227,9.227,0,0,1,6.387,0A8.925,8.925,0,0,1,20.1,8.193a9.257,9.257,0,0,1,2.04,2.535,9.053,9.053,0,0,1,1.052,3.308l.076,1.318A1.844,1.844,0,0,1,24.278,17v2.332a1.779,1.779,0,0,1-.279.989,1.842,1.842,0,0,1-.735.659v1.749a1.515,1.515,0,0,1-1.521,1.521ZM11.1,16.9a.73.73,0,0,1-.532-.228.759.759,0,0,1-.228-.558.689.689,0,0,1,.228-.52.782.782,0,0,1,.558-.215.708.708,0,0,1,.52.215.739.739,0,0,1,.215.545.751.751,0,0,1-.215.532A.717.717,0,0,1,11.1,16.9Zm6.083,0a.73.73,0,0,1-.532-.228.759.759,0,0,1-.228-.558.689.689,0,0,1,.228-.52.782.782,0,0,1,.558-.215.708.708,0,0,1,.52.215.739.739,0,0,1,.215.545.751.751,0,0,1-.215.532A.717.717,0,0,1,17.181,16.9Zm-9.1-1.318A5.814,5.814,0,0,1,8.5,12.869,6.274,6.274,0,0,1,9.893,10.8a6.3,6.3,0,0,1,4.3-1.762A5.489,5.489,0,0,1,18.068,10.5a6.17,6.17,0,0,1,1.926,3.637,7.33,7.33,0,0,1-4.195-1.28A8.435,8.435,0,0,1,13,9.6a8.1,8.1,0,0,1-1.711,3.637A7.888,7.888,0,0,1,8.081,15.581Z" transform="translate(5106 1019)" fill="#ffb546"/>
  </g>
</svg>
