<svg id="login_signup" xmlns="http://www.w3.org/2000/svg" width="24" height="24" viewBox="0 0 24 24">
  <path id="패스_85" data-name="패스 85" d="M0,0H24V24H0Z" fill="none"/>
  <circle id="타원_3" data-name="타원 3" cx="2.5" cy="2.5" r="2.5" transform="translate(2 7)" fill="#ffb546"/>
  <circle id="타원_4" data-name="타원 4" cx="2.5" cy="2.5" r="2.5" transform="translate(6.5 3)" fill="#ffb546"/>
  <circle id="타원_5" data-name="타원 5" cx="2.5" cy="2.5" r="2.5" transform="translate(12.5 3)" fill="#ffb546"/>
  <circle id="타원_6" data-name="타원 6" cx="2.5" cy="2.5" r="2.5" transform="translate(17 7)" fill="#ffb546"/>
  <path id="패스_86" data-name="패스 86" d="M17.34,14.86c-.87-1.02-1.6-1.89-2.48-2.91a4.243,4.243,0,0,0-1.75-1.32,2.025,2.025,0,0,0-.33-.09A5.033,5.033,0,0,0,12,10.5a4.2,4.2,0,0,0-.79.05,2.025,2.025,0,0,0-.33.09,4.308,4.308,0,0,0-1.75,1.32c-.87,1.02-1.6,1.89-2.48,2.91-1.31,1.31-2.92,2.76-2.62,4.79a3.14,3.14,0,0,0,2.33,2.32c.73.15,3.06-.44,5.54-.44h.18c2.48,0,4.81.58,5.54.44a3.155,3.155,0,0,0,2.33-2.32c.31-2.04-1.3-3.49-2.61-4.8Z" fill="#ffb546"/>
</svg>
