<svg xmlns="http://www.w3.org/2000/svg" width="24" height="24" viewBox="0 0 24 24">
  <g id="그룹_318" data-name="그룹 318" transform="translate(-5106 -1082)">
    <rect id="사각형_195" data-name="사각형 195" width="24" height="24" transform="translate(5106 1082)" fill="none"/>
    <path id="question_mark_FILL0_wght400_GRAD0_opsz48" d="M18.141,20.428a7.689,7.689,0,0,1,.467-2.97,6.9,6.9,0,0,1,1.655-2.037,12.039,12.039,0,0,0,1.825-1.994,3.391,3.391,0,0,0,.637-1.966,2.879,2.879,0,0,0-.849-2.122A3.213,3.213,0,0,0,19.5,8.489a2.972,2.972,0,0,0-2.263.835,5.612,5.612,0,0,0-1.16,1.74L13.7,10.017a6.461,6.461,0,0,1,2.108-2.843A5.768,5.768,0,0,1,19.5,6a5.8,5.8,0,0,1,4.357,1.57,5.221,5.221,0,0,1,1.528,3.777,5.208,5.208,0,0,1-.58,2.461,9.347,9.347,0,0,1-1.853,2.32,7.239,7.239,0,0,0-1.669,2.037,6.922,6.922,0,0,0-.311,2.263ZM19.5,27.5a1.98,1.98,0,1,1,1.4-.58A1.908,1.908,0,0,1,19.5,27.5Z" transform="translate(5099.3 1077)" fill="#ffb546"/>
    <g id="그룹_317" data-name="그룹 317" transform="translate(-2 60)">
      <rect id="사각형_195-2" data-name="사각형 195" width="24" height="24" transform="translate(5108 1022)" fill="none"/>
    </g>
  </g>
</svg>
